<?xml version="1.0" standalone="no"?>
<!DOCTYPE svg PUBLIC "-//W3C//DTD SVG 20010904//EN"
 "http://www.w3.org/TR/2001/REC-SVG-20010904/DTD/svg10.dtd">
<svg version="1.0" xmlns="http://www.w3.org/2000/svg"
 width="892.000000pt" height="892.000000pt" viewBox="0 0 892.000000 892.000000"
 preserveAspectRatio="xMidYMid meet">
<metadata>
Created by potrace 1.14, written by Peter Selinger 2001-2017
</metadata>
<g transform="translate(0.000000,892.000000) scale(0.100000,-0.100000)"
fill="#000000" stroke="none">
<path d="M407 8893 c-3 -16 -5 -2018 -4 -4451 2 -3877 4 -4424 17 -4432 22
-14 3218 -9 3224 5 2 6 5 162 6 346 3 655 10 1252 15 1257 3 3 317 7 697 8
381 2 729 5 773 8 103 6 193 14 225 21 14 3 45 8 70 11 25 3 79 13 120 21 41
9 82 17 90 18 24 2 123 26 140 33 8 3 22 7 30 8 8 1 67 18 130 38 63 20 120
38 125 40 6 2 23 8 38 14 16 7 32 12 35 12 8 0 144 56 227 93 84 37 318 158
346 178 15 10 32 19 38 19 6 0 11 4 11 9 0 5 8 11 18 15 24 8 81 44 99 61 8 8
18 15 23 15 5 0 15 6 22 13 7 7 36 28 63 47 45 30 173 129 201 155 6 6 35 30
65 55 110 92 381 371 460 475 13 17 26 32 30 35 3 3 32 41 64 85 32 44 63 83
68 86 5 3 8 9 8 13 -1 4 10 21 24 40 14 18 25 38 25 44 0 7 3 12 8 12 4 0 20
25 37 55 16 30 34 55 39 55 5 0 6 3 3 7 -4 3 0 14 8 23 23 26 185 347 178 354
-4 3 -1 6 5 6 7 0 12 6 12 14 0 7 14 47 31 87 17 41 35 83 39 94 11 27 79 235
85 260 3 11 14 54 26 95 11 41 22 85 24 97 2 11 6 31 10 43 8 26 15 65 17 98
1 12 5 22 9 22 4 0 7 10 6 23 0 12 3 42 7 67 4 25 10 61 12 80 3 19 7 46 9 60
26 168 27 671 0 855 -2 17 -6 46 -9 65 -3 19 -7 51 -11 70 -3 19 -7 49 -10 65
-19 137 -71 345 -135 535 -27 83 -57 164 -65 180 -9 16 -16 32 -16 35 -1 19
-115 273 -129 285 -3 3 -6 10 -7 15 -3 19 -112 205 -187 319 -128 197 -232
330 -366 469 -137 144 -363 357 -423 398 -17 13 -34 26 -37 29 -3 3 -23 19
-45 35 -22 17 -42 32 -45 35 -3 3 -41 29 -85 57 -44 29 -86 57 -92 63 -7 6
-13 7 -13 3 0 -4 -4 -3 -8 2 -13 19 -74 56 -199 120 -43 22 -80 43 -83 46 -4
5 -114 59 -130 64 -3 1 -30 13 -60 26 -30 14 -82 36 -115 49 -33 12 -73 29
-90 35 -16 7 -82 29 -145 49 -63 20 -122 39 -130 43 -8 3 -22 7 -30 8 -8 2
-53 12 -100 24 -81 21 -95 24 -157 36 -159 31 -246 44 -343 51 -30 3 -1127 7
-2436 9 l-2382 5 -5 -27z m4033 -87 c-4 -4 -5 -20 0 -35 4 -14 4 -35 0 -46 -4
-11 -5 -24 -2 -29 2 -4 6 -349 8 -765 4 -779 12 -2102 13 -2203 l1 -57 273 -1
c1062 -4 1317 -7 1322 -12 3 -3 -12 -34 -34 -69 -23 -35 -41 -70 -41 -76 0 -7
-4 -13 -8 -13 -5 0 -15 -12 -22 -27 -8 -16 -28 -50 -45 -78 -17 -27 -36 -59
-42 -70 -7 -11 -40 -67 -75 -124 -35 -57 -74 -122 -87 -145 -13 -22 -38 -63
-56 -91 -18 -27 -36 -60 -39 -72 -4 -13 -11 -23 -15 -23 -4 0 -16 -18 -26 -40
-10 -22 -22 -40 -27 -40 -4 0 -8 -4 -8 -9 0 -10 -76 -140 -157 -269 -23 -37
-47 -78 -53 -91 -6 -13 -24 -44 -40 -68 -17 -24 -30 -48 -30 -54 0 -5 -4 -9
-9 -9 -5 0 -13 -10 -17 -22 -3 -13 -21 -45 -39 -73 -29 -45 -49 -77 -110 -181
-31 -52 -158 -263 -180 -300 -34 -55 -249 -413 -260 -432 -16 -26 -98 -165
-112 -187 -7 -11 -15 -27 -19 -35 -4 -8 -11 -17 -14 -20 -4 -3 -17 -23 -29
-45 -12 -22 -33 -58 -47 -80 -14 -22 -27 -48 -31 -57 -3 -10 -9 -18 -14 -18
-5 0 -9 -4 -9 -9 0 -4 -67 -119 -150 -255 -82 -135 -150 -251 -150 -256 0 -6
-4 -10 -10 -10 -5 0 -10 -7 -10 -15 0 -8 -4 -15 -10 -15 -5 0 -10 -4 -10 -9 0
-5 -41 -76 -91 -157 -51 -82 -97 -158 -103 -169 -14 -25 -28 -47 -102 -160
l-59 -90 -5 170 c-3 94 -5 808 -5 1587 0 938 -3 1418 -10 1419 -5 1 -352 2
-770 3 -418 1 -765 5 -772 9 -6 4 -14 3 -18 -2 -3 -6 -13 -7 -21 -4 -9 3 -12
9 -7 12 5 3 14 17 21 31 14 30 38 69 75 127 15 24 27 45 27 48 0 2 17 31 37
62 21 32 38 60 38 63 0 3 17 31 38 63 20 31 37 60 37 63 0 3 18 33 40 67 22
34 46 74 53 89 6 15 15 28 19 28 5 0 8 4 8 9 0 5 18 38 40 72 22 35 45 73 50
84 12 22 12 23 85 143 28 45 55 90 60 100 11 18 104 173 120 200 6 9 30 51 54
92 24 41 47 77 50 80 3 3 14 21 25 40 21 40 34 61 105 180 28 47 55 92 61 100
13 18 34 56 52 90 7 14 15 27 19 30 4 3 15 21 25 40 27 48 197 334 204 340 3
3 16 25 29 50 14 25 31 51 38 58 7 7 13 20 13 28 0 8 5 14 10 14 6 0 10 5 10
10 0 6 23 47 50 91 28 44 50 85 50 90 0 5 5 9 10 9 6 0 10 4 10 10 0 12 242
414 252 418 5 2 8 9 8 14 0 6 26 54 59 107 32 53 68 112 79 131 11 19 38 64
61 100 22 36 46 74 51 85 6 11 19 34 30 50 11 17 23 37 27 45 4 8 22 38 40 67
18 29 33 56 33 62 0 5 3 11 8 13 4 2 43 63 87 137 61 104 80 129 86 115 4 -11
3 -23 -1 -28z"/>
</g>
</svg>
