<?xml version="1.0" encoding="UTF-8"?>
<svg version="1.1" viewBox="0 0 406 446" xmlns="http://www.w3.org/2000/svg">
    <g fill="none" fill-rule="evenodd">
    <g transform="translate(203 223) scale(-1 1) rotate(180) translate(-203 -223)" fill="#111827" fill-rule="nonzero">
    <path d="m43.246 1.4953e-5c1.2947-2.6772e-4 2.6253-2.7057e-4 3.9929-1.4953e-5l4.2141 0.0015359c8.6529 0.0045969 18.664 0.018268 30.215 0.039629l80.679 0.17801 0.29683 40.349c0.1781 22.192 0.3562 40.408 0.47493 40.527 0.052836 0.052809 12.426 0.10562 28.582 0.1166l1.0948 6.764e-4c0.18339 1.019e-4 0.36723 1.985e-4 0.55151 2.897e-4l2.7958 9.503e-4c0.18839 3.5e-5 0.37716 6.43e-5 0.5663 8.78e-5l2.8479 8.638e-4c0.1897 1.753e-4 0.37933 3.794e-4 0.56887 6.12e-4l1.1362 0.001735 1.1335 0.0024043c0.37731 9.114e-4 0.75405 0.001932 1.1301 0.0030594l1.126 0.0037002c16.482 0.058899 31.417 0.31998 34.812 0.58106 27.961 2.3141 56.517 11.867 80.5 26.879 18.819 11.749 37.519 29.134 50.877 47.291 28.377 38.568 40.369 87.461 33.067 134.99-4.9868 32.694-17.75 61.532-39.063 88.173-5.2242 6.4676-20.541 21.598-27.665 27.235-16.563 13.113-35.976 23.675-55.626 30.202-11.695 3.9162-19.828 5.8743-32.829 7.951-0.39775 0.062303-0.77695 0.12149-1.1534 0.17774l-0.45143 0.066102c-7.008 1.0031-15.25 1.0147-126.39 1.1802-15.829 0.028481-30.978 0.043291-44.865 0.046891l-3.445 6.68e-4c-0.56967 7.3e-5 -1.1371 1.27e-4 -1.7021 1.62e-4l-3.3623-1.7e-5c-0.55564-4e-5 -1.1089-9.9e-5 -1.6597-1.76e-4l-3.2751-6.82e-4c-36.778-0.0102-61.865-0.10381-62.026-0.22486-0.26121-0.26108-0.3845-86.288-0.39516-182.64l6.931e-4 -33.135c0.01694-113.27 0.18134-228.88 0.45383-229.37 0.30336-0.43315 9.2434-0.61335 39.014-0.63291zm119.87 84.451-0.013563 0.0069331c-0.17094 0.5127-0.34188 33.729-0.35528 74.921l-6.31e-4 2.5847c-1.41e-4 0.86486-2.12e-4 1.733-2.12e-4 2.6041v79.16l-42.687 5.66e-4c-0.2168 9.4e-5 -0.43314 2e-4 -0.64902 3.17e-4l-1.2895 8.42e-4c-19.897 0.015181-35.503 0.12942-35.503 0.29498 0 0.23736 117.4 196 119.24 198.79 0.17806 0.3534 0.47484-35.31 0.6529-79.222l0.005342-1.3149c0.17628-43.313 0.35197-78.558 0.4695-78.617 0.059355-0.11868 18.163-0.23736 40.183-0.2967l40.124-0.17802-59.948-99.811c-38.284-63.85-60.008-99.514-60.245-98.92z"/>
    </g>
    </g>
</svg>
